<svg id="visual" viewBox="0 0 900 600" width="900" height="600" xmlns="http://www.w3.org/2000/svg" xmlns:xlink="http://www.w3.org/1999/xlink" version="1.1"><g stroke-width="1" stroke-linejoin="bevel"><path d="M400 295L371 235L302 266Z" fill="#a4ad5d" stroke="#a4ad5d"></path><path d="M302 266L397 373L400 295Z" fill="#c0b27d" stroke="#c0b27d"></path><path d="M302 266L268 398L397 373Z" fill="#29a63f" stroke="#29a63f"></path><path d="M371 235L265 175L302 266Z" fill="#b4af6c" stroke="#b4af6c"></path><path d="M302 266L181 210L226 315Z" fill="#b4af6c" stroke="#b4af6c"></path><path d="M226 315L268 398L302 266Z" fill="#78aa46" stroke="#78aa46"></path><path d="M501 110L360 131L371 235Z" fill="#5aa840" stroke="#5aa840"></path><path d="M371 235L360 131L265 175Z" fill="#cec1b4" stroke="#cec1b4"></path><path d="M530 304L507 238L400 295Z" fill="#90ab50" stroke="#90ab50"></path><path d="M400 295L507 238L371 235Z" fill="#90ab50" stroke="#90ab50"></path><path d="M409 507L484 389L397 373Z" fill="#78aa46" stroke="#78aa46"></path><path d="M397 373L484 389L400 295Z" fill="#c9b68f" stroke="#c9b68f"></path><path d="M484 389L530 304L400 295Z" fill="#c0b27d" stroke="#c0b27d"></path><path d="M170 119L181 210L265 175Z" fill="#c0b27d" stroke="#c0b27d"></path><path d="M265 175L181 210L302 266Z" fill="#78aa46" stroke="#78aa46"></path><path d="M126 307L181 411L226 315Z" fill="#a4ad5d" stroke="#a4ad5d"></path><path d="M226 315L181 411L268 398Z" fill="#78aa46" stroke="#78aa46"></path><path d="M268 398L339 497L397 373Z" fill="#b4af6c" stroke="#b4af6c"></path><path d="M221 518L339 497L268 398Z" fill="#cbc8c6" stroke="#cbc8c6"></path><path d="M604 370L566 260L530 304Z" fill="#c9b68f" stroke="#c9b68f"></path><path d="M530 304L566 260L507 238Z" fill="#a4ad5d" stroke="#a4ad5d"></path><path d="M507 238L501 110L371 235Z" fill="#90ab50" stroke="#90ab50"></path><path d="M181 210L126 307L226 315Z" fill="#b4af6c" stroke="#b4af6c"></path><path d="M600 196L501 110L507 238Z" fill="#a4ad5d" stroke="#a4ad5d"></path><path d="M432 0L295 60L360 131Z" fill="#29a63f" stroke="#29a63f"></path><path d="M360 131L295 60L265 175Z" fill="#90ab50" stroke="#90ab50"></path><path d="M339 497L409 507L397 373Z" fill="#c0b27d" stroke="#c0b27d"></path><path d="M484 389L604 370L530 304Z" fill="#a4ad5d" stroke="#a4ad5d"></path><path d="M295 60L170 119L265 175Z" fill="#c0b27d" stroke="#c0b27d"></path><path d="M181 210L109 188L126 307Z" fill="#78aa46" stroke="#78aa46"></path><path d="M170 119L109 188L181 210Z" fill="#cec1b4" stroke="#cec1b4"></path><path d="M566 260L600 196L507 238Z" fill="#cbc8c6" stroke="#cbc8c6"></path><path d="M514 525L604 370L484 389Z" fill="#c9b68f" stroke="#c9b68f"></path><path d="M566 260L681 236L600 196Z" fill="#b4af6c" stroke="#b4af6c"></path><path d="M69 533L221 518L181 411Z" fill="#c0b27d" stroke="#c0b27d"></path><path d="M181 411L221 518L268 398Z" fill="#a4ad5d" stroke="#a4ad5d"></path><path d="M339 497L336 600L409 507Z" fill="#cebaa2" stroke="#cebaa2"></path><path d="M600 196L587 121L501 110Z" fill="#90ab50" stroke="#90ab50"></path><path d="M432 0L272 0L295 60Z" fill="#cec1b4" stroke="#cec1b4"></path><path d="M295 60L184 0L170 119Z" fill="#c0b27d" stroke="#c0b27d"></path><path d="M170 119L128 76L109 188Z" fill="#c9b68f" stroke="#c9b68f"></path><path d="M432 0L360 131L501 110Z" fill="#90ab50" stroke="#90ab50"></path><path d="M409 507L514 525L484 389Z" fill="#b4af6c" stroke="#b4af6c"></path><path d="M498 600L514 525L409 507Z" fill="#c0b27d" stroke="#c0b27d"></path><path d="M494 0L432 0L501 110Z" fill="#c9b68f" stroke="#c9b68f"></path><path d="M184 0L128 76L170 119Z" fill="#cec1b4" stroke="#cec1b4"></path><path d="M580 0L494 0L501 110Z" fill="#cebaa2" stroke="#cebaa2"></path><path d="M221 518L336 600L339 497Z" fill="#c0b27d" stroke="#c0b27d"></path><path d="M0 396L64 431L126 307Z" fill="#cec1b4" stroke="#cec1b4"></path><path d="M126 307L64 431L181 411Z" fill="#78aa46" stroke="#78aa46"></path><path d="M221 518L196 600L336 600Z" fill="#90ab50" stroke="#90ab50"></path><path d="M0 311L126 307L109 188Z" fill="#cebaa2" stroke="#cebaa2"></path><path d="M336 600L410 600L409 507Z" fill="#cec1b4" stroke="#cec1b4"></path><path d="M272 0L184 0L295 60Z" fill="#c0b27d" stroke="#c0b27d"></path><path d="M706 319L681 236L566 260Z" fill="#cec1b4" stroke="#cec1b4"></path><path d="M600 196L722 131L587 121Z" fill="#29a63f" stroke="#29a63f"></path><path d="M587 121L580 0L501 110Z" fill="#5aa840" stroke="#5aa840"></path><path d="M514 525L591 531L604 370Z" fill="#78aa46" stroke="#78aa46"></path><path d="M604 370L706 319L566 260Z" fill="#78aa46" stroke="#78aa46"></path><path d="M498 600L591 531L514 525Z" fill="#cebaa2" stroke="#cebaa2"></path><path d="M410 600L498 600L409 507Z" fill="#29a63f" stroke="#29a63f"></path><path d="M0 178L0 311L109 188Z" fill="#78aa46" stroke="#78aa46"></path><path d="M108 600L196 600L221 518Z" fill="#78aa46" stroke="#78aa46"></path><path d="M713 497L693 377L604 370Z" fill="#5aa840" stroke="#5aa840"></path><path d="M693 377L706 319L604 370Z" fill="#cebaa2" stroke="#cebaa2"></path><path d="M719 0L580 0L587 121Z" fill="#a4ad5d" stroke="#a4ad5d"></path><path d="M0 73L109 188L128 76Z" fill="#cebaa2" stroke="#cebaa2"></path><path d="M0 73L0 178L109 188Z" fill="#c0b27d" stroke="#c0b27d"></path><path d="M0 311L0 396L126 307Z" fill="#cec1b4" stroke="#cec1b4"></path><path d="M64 431L69 533L181 411Z" fill="#c0b27d" stroke="#c0b27d"></path><path d="M0 533L69 533L64 431Z" fill="#c0b27d" stroke="#c0b27d"></path><path d="M184 0L68 0L128 76Z" fill="#cec1b4" stroke="#cec1b4"></path><path d="M69 533L108 600L221 518Z" fill="#5aa840" stroke="#5aa840"></path><path d="M681 236L722 131L600 196Z" fill="#cec1b4" stroke="#cec1b4"></path><path d="M777 167L722 131L681 236Z" fill="#cec1b4" stroke="#cec1b4"></path><path d="M68 0L0 73L128 76Z" fill="#29a63f" stroke="#29a63f"></path><path d="M498 600L617 600L591 531Z" fill="#cebaa2" stroke="#cebaa2"></path><path d="M591 531L713 497L604 370Z" fill="#5aa840" stroke="#5aa840"></path><path d="M617 600L713 497L591 531Z" fill="#29a63f" stroke="#29a63f"></path><path d="M822 411L783 283L706 319Z" fill="#cec1b4" stroke="#cec1b4"></path><path d="M706 319L783 283L681 236Z" fill="#c0b27d" stroke="#c0b27d"></path><path d="M0 396L0 533L64 431Z" fill="#c0b27d" stroke="#c0b27d"></path><path d="M69 533L0 600L108 600Z" fill="#a4ad5d" stroke="#a4ad5d"></path><path d="M822 411L706 319L693 377Z" fill="#5aa840" stroke="#5aa840"></path><path d="M783 283L777 167L681 236Z" fill="#cbc8c6" stroke="#cbc8c6"></path><path d="M722 131L719 0L587 121Z" fill="#5aa840" stroke="#5aa840"></path><path d="M68 0L0 0L0 73Z" fill="#90ab50" stroke="#90ab50"></path><path d="M764 600L771 462L713 497Z" fill="#a4ad5d" stroke="#a4ad5d"></path><path d="M713 497L771 462L693 377Z" fill="#cec1b4" stroke="#cec1b4"></path><path d="M827 107L719 0L722 131Z" fill="#c0b27d" stroke="#c0b27d"></path><path d="M0 533L0 600L69 533Z" fill="#78aa46" stroke="#78aa46"></path><path d="M617 600L721 600L713 497Z" fill="#cbc8c6" stroke="#cbc8c6"></path><path d="M900 207L827 107L777 167Z" fill="#c9b68f" stroke="#c9b68f"></path><path d="M771 462L822 411L693 377Z" fill="#cebaa2" stroke="#cebaa2"></path><path d="M900 513L822 411L771 462Z" fill="#c9b68f" stroke="#c9b68f"></path><path d="M777 167L827 107L722 131Z" fill="#cebaa2" stroke="#cebaa2"></path><path d="M900 207L777 167L783 283Z" fill="#5aa840" stroke="#5aa840"></path><path d="M721 600L764 600L713 497Z" fill="#b4af6c" stroke="#b4af6c"></path><path d="M900 369L900 327L822 411Z" fill="#78aa46" stroke="#78aa46"></path><path d="M822 411L900 327L783 283Z" fill="#b4af6c" stroke="#b4af6c"></path><path d="M900 327L900 207L783 283Z" fill="#cec1b4" stroke="#cec1b4"></path><path d="M900 513L900 369L822 411Z" fill="#29a63f" stroke="#29a63f"></path><path d="M900 78L839 0L827 107Z" fill="#78aa46" stroke="#78aa46"></path><path d="M827 107L839 0L719 0Z" fill="#c9b68f" stroke="#c9b68f"></path><path d="M900 207L900 78L827 107Z" fill="#90ab50" stroke="#90ab50"></path><path d="M764 600L900 513L771 462Z" fill="#cec1b4" stroke="#cec1b4"></path><path d="M900 78L900 0L839 0Z" fill="#29a63f" stroke="#29a63f"></path><path d="M764 600L900 600L900 513Z" fill="#b4af6c" stroke="#b4af6c"></path></g></svg>